# xmcd
#
# Track frame offsets:
#	150
#	12189
#	23981
#	40654
#	54885
#	71518
#	84901
#	102031
#	115719
#	130269
#	147401
#	164963
#	178652
#	192736
#	206039
#	219601
#	233459
#	245370
#	255910
#	268209
#	285827
#
# Disc length: 4021 seconds
#
# Revision: 1
# Processed by: cddbd v1.5.2PL0 Copyright (c) Steve Scherf et al.
# Submitted via: dBpowerAMP V4.0
#
DISCID=260fb315
DTITLE=Various Artist - Hott Urban Volume 48 Can
DYEAR=2019
DGENRE=Urban
TTITLE0=City Girls\N - Act Up
TTITLE1=Lil Nas X ft. Billy Ray Cyrus - Old Town Road [Remix]
TTITLE2=Chris Brown - Back To Love
TTITLE3=Juice Wrld - Hear Me Calling
TTITLE4=Summer Walker ft. Drake - Girls Need Love [Remix]
TTITLE5=Wiley, Sean Paul and Steflon Don ft. Idris Elba - Boasty
TTITLE6=Yella Beezy ft. Quavo and Gucci Mane - Bacc At It Again
TTITLE7=Schoolboy Q ft. Travis Scott - Chopstix
TTITLE8=Lightskinkeisha ft. Yella Beezy - Hey Lightskin
TTITLE9=Khalid ft. Megan Thee Stallion and Yo Gotti - Talk [Remix]
TTITLE10=Travis Scott ft. The Weeknd - Wake Up
TTITLE11=Jacquees ft. Lil Baby - Your Peace
TTITLE12=Teyana Taylor - Issues-Hold On
TTITLE13=Sean Paul X J Balvin - Contra La Pared
TTITLE14=Iggy Azalea - Sally Walker
TTITLE15=Saint Jhn ft. Lil Baby - Trap
TTITLE16=Bonfyre, The - Automatic
TTITLE17=G-Eazy ft. Blueface - West Coast
TTITLE18=Tyla Yaweh - High Right Now
TTITLE19=Derek King - Tetris
TTITLE20=Icewear Vezzo ft. Big Sean - Balance
EXTD=
EXTT0=
EXTT1=
EXTT2=
EXTT3=
EXTT4=
EXTT5=
EXTT6=
EXTT7=
EXTT8=
EXTT9=
EXTT10=
EXTT11=
EXTT12=
EXTT13=
EXTT14=
EXTT15=
EXTT16=
EXTT17=
EXTT18=
EXTT19=
EXTT20=
PLAYORDER=
